<svg width="73" height="16" viewBox="0 0 73 16" fill="none" xmlns="http://www.w3.org/2000/svg">
<path d="M17.656 0.807994H27.16V2.31199H19.48V4.00799H27.272V5.51199H23.32V6.71199H29.448V8.21599H15.448V6.71199H21.496V5.51199H17.656V0.807994ZM17.624 15.224V11.336H25.448V10.488H17.624V9.01599H27.272V12.776H19.448V13.72H27.64V15.224H17.624Z" fill="#87CEB8"/>
<path d="M44.4982 7.36799H42.1302V15.224H40.3062V0.455994H42.1302V5.83199H44.4982V7.36799ZM38.4022 6.61599C38.4022 7.47999 38.3116 8.24799 38.1302 8.91999C37.9489 9.58133 37.6876 10.136 37.3462 10.584C37.0156 11.032 36.6156 11.3733 36.1462 11.608C35.6876 11.8427 35.1702 11.96 34.5942 11.96C34.0182 11.96 33.4956 11.8427 33.0262 11.608C32.5569 11.3733 32.1516 11.032 31.8102 10.584C31.4796 10.136 31.2236 9.58133 31.0422 8.91999C30.8609 8.24799 30.7702 7.47999 30.7702 6.61599C30.7702 5.75199 30.8609 4.98933 31.0422 4.32799C31.2236 3.66666 31.4796 3.11199 31.8102 2.66399C32.1516 2.21599 32.5569 1.87466 33.0262 1.63999C33.4956 1.40533 34.0182 1.28799 34.5942 1.28799C35.1702 1.28799 35.6876 1.40533 36.1462 1.63999C36.6156 1.87466 37.0156 2.21599 37.3462 2.66399C37.6876 3.11199 37.9489 3.66666 38.1302 4.32799C38.3116 4.98933 38.4022 5.75199 38.4022 6.61599ZM36.5782 6.61599C36.5782 5.45333 36.4076 4.53066 36.0662 3.84799C35.7249 3.16533 35.2342 2.82399 34.5942 2.82399C33.9542 2.82399 33.4582 3.16533 33.1062 3.84799C32.7649 4.53066 32.5942 5.45333 32.5942 6.61599C32.5942 7.77866 32.7649 8.70666 33.1062 9.39999C33.4582 10.0827 33.9542 10.424 34.5942 10.424C35.2342 10.424 35.7249 10.0827 36.0662 9.39999C36.4076 8.70666 36.5782 7.77866 36.5782 6.61599Z" fill="#87CEB8"/>
<path d="M59.4045 7.62399H57.0365V15.224H55.2125V0.455994H57.0365V6.08799H59.4045V7.62399ZM45.4685 11C46.4712 10.488 47.3352 9.91733 48.0605 9.28799C48.7858 8.65866 49.3885 8.00266 49.8685 7.31999C50.3485 6.63733 50.7112 5.94399 50.9565 5.23999C51.2125 4.53599 51.3672 3.85333 51.4205 3.19199C50.2045 3.22399 48.9938 3.23999 47.7885 3.23999H46.1085V1.70399H50.9405C51.3245 1.70399 51.7192 1.70399 52.1245 1.70399C52.5298 1.69333 52.9565 1.68266 53.4045 1.67199C53.3298 2.81333 53.1485 3.88533 52.8605 4.88799C52.5725 5.89066 52.1565 6.82933 51.6125 7.70399C51.0685 8.57866 50.3805 9.38933 49.5485 10.136C48.7165 10.872 47.7245 11.5493 46.5725 12.168L45.4685 11Z" fill="#87CEB8"/>
<path d="M60.4707 10.968C61.4414 10.4453 62.2841 9.88533 62.9987 9.28799C63.7134 8.67999 64.3107 8.05066 64.7907 7.39999C65.2814 6.73866 65.6601 6.05599 65.9267 5.35199C66.1934 4.64799 66.3694 3.92799 66.4548 3.19199C65.2494 3.22399 64.0441 3.23999 62.8387 3.23999H61.1427V1.70399H65.9907C66.3747 1.70399 66.7641 1.70399 67.1587 1.70399C67.5641 1.69333 67.9907 1.68266 68.4387 1.67199C68.3641 2.81333 68.1827 3.88533 67.8947 4.88799C67.6067 5.89066 67.1907 6.82933 66.6467 7.70399C66.1027 8.57866 65.4201 9.38933 64.5987 10.136C63.7774 10.872 62.7907 11.5493 61.6387 12.168L60.4707 10.968ZM70.7907 0.455994H72.6147V15.224H70.7907V0.455994Z" fill="#87CEB8"/>
<path d="M7.34196 2.02589C7.57665 1.7912 7.57665 1.4107 7.34196 1.17601C7.10728 0.941329 6.72678 0.941329 6.49209 1.17601L0.234686 7.43342C-0.0782286 7.74633 -0.0782286 8.25367 0.234686 8.56658L6.49209 14.824C6.72678 15.0587 7.10728 15.0587 7.34196 14.824C7.57665 14.5893 7.57665 14.2088 7.34196 13.9741L1.36785 8L7.34196 2.02589Z" fill="#87CEB8"/>
</svg>
