<svg width="33" height="10" viewBox="0 0 33 10" fill="none" xmlns="http://www.w3.org/2000/svg">
<g opacity="0.6">
<path d="M3.74593 1.37601C3.75793 1.89201 3.68593 2.38401 3.52993 2.85201C3.96793 3.14601 4.38793 3.47301 4.78993 3.83301C5.19793 4.19301 5.55793 4.54401 5.86993 4.88601L5.33893 5.35401C5.00893 4.98801 4.66993 4.64301 4.32193 4.31901C3.97393 3.99501 3.62593 3.71301 3.27793 3.47301C3.06793 3.89301 2.79193 4.28301 2.44993 4.64301C2.10793 4.99701 1.69393 5.30901 1.20793 5.57901L0.739929 5.11101C1.53193 4.64301 2.11093 4.11801 2.47693 3.53601C2.84293 2.94801 3.03493 2.27601 3.05293 1.52001V1.35801C3.05293 1.32801 3.05293 1.30101 3.05293 1.27701C3.05293 1.25301 3.04993 1.22601 3.04393 1.19601H3.74593V1.37601ZM7.25593 9.21501H6.55393V6.84801H2.07193V6.24501H7.25593V9.21501ZM8.56993 2.98701V3.59001H7.25593V5.75901H6.55393V0.989014H7.25593V2.98701H8.56993Z" fill="#464646"/>
<path d="M12.5537 1.70001C12.5177 2.66601 12.3137 3.59001 11.9417 4.47201C12.2297 4.80201 12.5117 5.15001 12.7877 5.51601C13.0637 5.87601 13.3127 6.23601 13.5347 6.59601L12.9677 6.98301C12.7697 6.62301 12.5567 6.29601 12.3287 6.00201C12.1067 5.70801 11.8697 5.41701 11.6177 5.12901C11.1497 5.95701 10.5197 6.68901 9.72769 7.32501L9.17869 6.89301C9.99469 6.23901 10.6217 5.52501 11.0597 4.75101C11.5037 3.97101 11.7437 3.15201 11.7797 2.29401C11.5277 2.30601 11.2727 2.31501 11.0147 2.32101C10.7627 2.32101 10.4927 2.32101 10.2047 2.32101H9.61069V1.71801H11.5817C11.7377 1.71801 11.8937 1.71801 12.0497 1.71801C12.2117 1.71201 12.3797 1.70601 12.5537 1.70001ZM13.8857 3.78801V1.07901H14.5607V8.98101H13.8857V4.39101H12.7067V3.78801H13.8857ZM16.1717 0.989014V9.18801H15.4877V0.989014H16.1717Z" fill="#464646"/>
<path d="M22.0725 5.55201C22.0725 5.81601 22.0215 6.06201 21.9195 6.29001C21.8235 6.51801 21.6855 6.71601 21.5055 6.88401C21.3315 7.05201 21.1215 7.18701 20.8755 7.28901C20.6295 7.38501 20.3595 7.43301 20.0655 7.43301C19.7655 7.43301 19.4925 7.38501 19.2465 7.28901C19.0005 7.18701 18.7875 7.05201 18.6075 6.88401C18.4275 6.71601 18.2865 6.51801 18.1845 6.29001C18.0885 6.06201 18.0405 5.81601 18.0405 5.55201C18.0405 5.29401 18.0885 5.05401 18.1845 4.83201C18.2865 4.60401 18.4275 4.40601 18.6075 4.23801C18.7875 4.07001 19.0005 3.93801 19.2465 3.84201C19.4925 3.74001 19.7655 3.68901 20.0655 3.68901C20.3595 3.68901 20.6295 3.74001 20.8755 3.84201C21.1215 3.93801 21.3315 4.07001 21.5055 4.23801C21.6855 4.40601 21.8235 4.60401 21.9195 4.83201C22.0215 5.05401 22.0725 5.29401 22.0725 5.55201ZM25.4025 4.47201V5.07501H23.9805V9.17001H23.2785V0.989014H23.9805V4.47201H25.4025ZM18.7425 5.56101C18.7425 5.74101 18.7755 5.90901 18.8415 6.06501C18.9075 6.22101 18.9975 6.35601 19.1115 6.47001C19.2315 6.58401 19.3695 6.67401 19.5255 6.74001C19.6875 6.80001 19.8645 6.83001 20.0565 6.83001C20.2425 6.83001 20.4165 6.80001 20.5785 6.74001C20.7405 6.67401 20.8785 6.58401 20.9925 6.47001C21.1125 6.35601 21.2055 6.22101 21.2715 6.06501C21.3375 5.90901 21.3705 5.74101 21.3705 5.56101C21.3705 5.38101 21.3375 5.21301 21.2715 5.05701C21.2055 4.90101 21.1125 4.76601 20.9925 4.65201C20.8785 4.53801 20.7405 4.45101 20.5785 4.39101C20.4165 4.32501 20.2425 4.29201 20.0565 4.29201C19.8645 4.29201 19.6875 4.32501 19.5255 4.39101C19.3695 4.45101 19.2315 4.53801 19.1115 4.65201C18.9975 4.76601 18.9075 4.90101 18.8415 5.05701C18.7755 5.21301 18.7425 5.38101 18.7425 5.56101ZM22.5315 3.14001H17.5365V2.57301H19.7415V1.27701H20.4435V2.57301H22.5315V3.14001Z" fill="#464646"/>
<path d="M26.1462 6.93801C26.6922 6.66801 27.1692 6.35901 27.5772 6.01101C27.9852 5.66301 28.3332 5.28801 28.6212 4.88601C28.9092 4.48401 29.1372 4.06401 29.3052 3.62601C29.4732 3.18201 29.5872 2.73201 29.6472 2.27601C28.9092 2.29401 28.1802 2.30301 27.4602 2.30301H26.4702V1.70001H29.1612C29.3652 1.70001 29.5722 1.70001 29.7822 1.70001C29.9922 1.69401 30.2052 1.68801 30.4212 1.68201C30.3312 2.93601 29.9802 4.04301 29.3682 5.00301C28.7562 5.96301 27.8382 6.77001 26.6142 7.42401L26.1462 6.93801ZM32.1042 9.18801V0.989014H32.8062V9.18801H32.1042Z" fill="#464646"/>
</g>
</svg>
