<svg width="28" height="24" viewBox="0 0 28 24" fill="none" xmlns="http://www.w3.org/2000/svg">
<path d="M2.06136 2.41294C5.18102 -0.661347 10.1557 -0.870517 13.2752 2.20396L14.0506 3.09654L14.9168 2.20396C17.9639 -0.799084 22.688 -0.659428 25.8211 2.20396L26.0418 2.41294C29.0889 5.41599 28.3426 11.4188 25.4373 14.5067L25.0545 14.9042L24.6297 15.3319C22.9903 16.9545 20.4769 19.1765 17.0907 21.9969L15.1571 23.5946C14.4899 24.1418 13.5193 24.133 12.8621 23.5741L10.4744 21.5321L8.34945 19.6893C5.82353 17.4818 3.92705 15.7545 2.66097 14.5067C-0.458588 11.4321 -1.05824 5.48749 2.06136 2.41294Z" fill="#FF0000"/>
</svg>
