<svg width="28" height="24" viewBox="0 0 28 24" fill="none" xmlns="http://www.w3.org/2000/svg">
<path d="M2.05862 2.40759C5.17828 -0.666698 10.153 -0.875868 13.2725 2.19861L14.0479 3.09119L14.9141 2.19861C17.9612 -0.804435 22.6853 -0.664778 25.8184 2.19861L26.0391 2.40759C29.0862 5.41064 28.3399 11.4135 25.4346 14.5013L25.0518 14.8988L24.627 15.3265C22.9876 16.9491 20.4741 19.1711 17.0879 21.9916L15.1543 23.5892C14.4871 24.1364 13.5166 24.1276 12.8594 23.5687L10.4717 21.5267L8.34671 19.684C5.82079 17.4765 3.92431 15.7491 2.65823 14.5013C-0.461327 11.4267 -1.06098 5.48214 2.05862 2.40759ZM24.6114 3.48083C22.1088 1.19385 18.4765 1.16139 16.1973 3.40662L13.9746 5.69861L11.9717 3.39099C9.59691 1.10006 5.78034 1.21374 3.31351 3.6449C1.02254 5.90278 1.34417 10.7312 3.91409 13.264L4.37503 13.7123C5.6731 14.961 7.52663 16.6357 9.92972 18.7289L11.6358 20.2054L14.0186 22.2445L15.9424 20.6547L17.3233 19.4965C19.9789 17.2536 21.9935 15.453 23.3526 14.1088L23.7627 13.6967L24.1328 13.3119C26.5949 10.6952 26.9607 5.79095 24.8076 3.66833L24.6114 3.48083Z" fill="#464646"/>
</svg>
