<svg width="20" height="18" viewBox="0 0 20 18" fill="none" xmlns="http://www.w3.org/2000/svg">
<path d="M1.47168 1.7373C3.69995 -0.475477 7.25415 -0.626844 9.48242 1.58594L10.0361 2.22852L10.6543 1.58594C12.8307 -0.575348 16.2055 -0.474757 18.4434 1.58594L18.6016 1.7373C20.7775 3.89877 20.244 8.21825 18.1689 10.4404L17.8965 10.7266L17.5918 11.0352C16.4209 12.2029 14.6263 13.8015 12.208 15.8311L10.8262 16.9814C10.3496 17.3751 9.65585 17.369 9.18652 16.9668L7.48242 15.4971L5.96387 14.1709C4.15969 12.5822 2.80572 11.3385 1.90137 10.4404C-0.326756 8.22779 -0.756091 3.95021 1.47168 1.7373Z" fill="#FF0000"/>
</svg>
