<svg width="33" height="10" viewBox="0 0 33 10" fill="none" xmlns="http://www.w3.org/2000/svg">
<g opacity="0.6">
<path d="M0.829926 6.17301V5.57001H8.46193V6.17301H5.08693V9.14301H4.35793V6.17301H0.829926ZM5.20393 1.28601C5.19793 1.62801 5.12293 1.95801 4.97893 2.27601C5.22493 2.39601 5.47993 2.53101 5.74393 2.68101C6.00793 2.82501 6.26893 2.97801 6.52693 3.14001C6.79093 3.29601 7.04593 3.45501 7.29193 3.61701C7.54393 3.77901 7.77793 3.93501 7.99393 4.08501L7.46293 4.61601C7.03093 4.31001 6.57793 4.00701 6.10393 3.70701C5.62993 3.40101 5.13793 3.12201 4.62793 2.87001C4.46593 3.08601 4.27693 3.28701 4.06093 3.47301C3.84493 3.65901 3.61093 3.82701 3.35893 3.97701C3.11293 4.12701 2.85193 4.25901 2.57593 4.37301C2.29993 4.48101 2.02093 4.56801 1.73893 4.63401L1.35193 4.07601C1.82593 3.94401 2.25193 3.78201 2.62993 3.59001C3.00793 3.39201 3.32893 3.17301 3.59293 2.93301C3.86293 2.69301 4.07293 2.43501 4.22293 2.15901C4.37893 1.88301 4.47193 1.59501 4.50193 1.29501V1.15101H5.20393V1.28601Z" fill="#464646"/>
<path d="M13.3907 9.26001C12.9467 9.26001 12.5567 9.21501 12.2207 9.12501C11.8847 9.04101 11.6027 8.92401 11.3747 8.77401C11.1527 8.62401 10.9817 8.45001 10.8617 8.25201C10.7477 8.05401 10.6907 7.84101 10.6907 7.61301C10.6907 7.38501 10.7477 7.17201 10.8617 6.97401C10.9817 6.77601 11.1527 6.60201 11.3747 6.45201C11.6027 6.30201 11.8847 6.18501 12.2207 6.10101C12.5567 6.01701 12.9467 5.97501 13.3907 5.97501C13.8287 5.97501 14.2157 6.01701 14.5517 6.10101C14.8937 6.18501 15.1757 6.30201 15.3977 6.45201C15.6257 6.60201 15.7967 6.77601 15.9107 6.97401C16.0307 7.17201 16.0907 7.38501 16.0907 7.61301C16.0907 7.84101 16.0307 8.05401 15.9107 8.25201C15.7967 8.45001 15.6257 8.62401 15.3977 8.77401C15.1757 8.92401 14.8937 9.04101 14.5517 9.12501C14.2157 9.21501 13.8287 9.26001 13.3907 9.26001ZM13.5167 1.34901C13.4807 1.74501 13.3907 2.11701 13.2467 2.46501C13.1087 2.81301 12.9227 3.14901 12.6887 3.47301C13.0307 3.70101 13.3517 3.94701 13.6517 4.21101C13.9577 4.47501 14.2487 4.75401 14.5247 5.04801L14.0117 5.49801C13.7417 5.22201 13.4657 4.95501 13.1837 4.69701C12.9077 4.43901 12.6077 4.19601 12.2837 3.96801C11.6057 4.68201 10.7387 5.24301 9.68269 5.65101L9.23269 5.12901C9.70669 4.94301 10.1417 4.72701 10.5377 4.48101C10.9337 4.22901 11.2787 3.96201 11.5727 3.68001C11.8667 3.39801 12.1037 3.11001 12.2837 2.81601C12.4637 2.51601 12.5777 2.22501 12.6257 1.94301C12.2837 1.95501 11.9717 1.96401 11.6897 1.97001C11.4077 1.97001 11.0987 1.97001 10.7627 1.97001H9.80869V1.36701H12.3287C12.5207 1.36701 12.7127 1.36701 12.9047 1.36701C13.1027 1.36101 13.3067 1.35501 13.5167 1.34901ZM13.3817 8.65701C13.7177 8.65701 14.0117 8.62701 14.2637 8.56701C14.5157 8.50701 14.7227 8.42601 14.8847 8.32401C15.0527 8.22801 15.1787 8.12001 15.2627 8.00001C15.3467 7.87401 15.3887 7.74801 15.3887 7.62201C15.3887 7.49001 15.3467 7.36401 15.2627 7.24401C15.1787 7.11801 15.0527 7.00701 14.8847 6.91101C14.7227 6.80901 14.5157 6.72801 14.2637 6.66801C14.0117 6.60801 13.7177 6.57801 13.3817 6.57801C13.0457 6.57801 12.7547 6.60801 12.5087 6.66801C12.2627 6.72801 12.0557 6.80901 11.8877 6.91101C11.7197 7.00701 11.5937 7.11801 11.5097 7.24401C11.4317 7.36401 11.3927 7.49001 11.3927 7.62201C11.3927 7.74801 11.4317 7.87401 11.5097 8.00001C11.5937 8.12001 11.7197 8.22801 11.8877 8.32401C12.0557 8.42601 12.2627 8.50701 12.5087 8.56701C12.7547 8.62701 13.0457 8.65701 13.3817 8.65701ZM15.3347 3.43701H13.8407V2.84301H15.3347V0.989014H16.0367V5.89401H15.3347V3.43701Z" fill="#464646"/>
<path d="M22.0725 5.55201C22.0725 5.81601 22.0215 6.06201 21.9195 6.29001C21.8235 6.51801 21.6855 6.71601 21.5055 6.88401C21.3315 7.05201 21.1215 7.18701 20.8755 7.28901C20.6295 7.38501 20.3595 7.43301 20.0655 7.43301C19.7655 7.43301 19.4925 7.38501 19.2465 7.28901C19.0005 7.18701 18.7875 7.05201 18.6075 6.88401C18.4275 6.71601 18.2865 6.51801 18.1845 6.29001C18.0885 6.06201 18.0405 5.81601 18.0405 5.55201C18.0405 5.29401 18.0885 5.05401 18.1845 4.83201C18.2865 4.60401 18.4275 4.40601 18.6075 4.23801C18.7875 4.07001 19.0005 3.93801 19.2465 3.84201C19.4925 3.74001 19.7655 3.68901 20.0655 3.68901C20.3595 3.68901 20.6295 3.74001 20.8755 3.84201C21.1215 3.93801 21.3315 4.07001 21.5055 4.23801C21.6855 4.40601 21.8235 4.60401 21.9195 4.83201C22.0215 5.05401 22.0725 5.29401 22.0725 5.55201ZM25.4025 4.47201V5.07501H23.9805V9.17001H23.2785V0.989014H23.9805V4.47201H25.4025ZM18.7425 5.56101C18.7425 5.74101 18.7755 5.90901 18.8415 6.06501C18.9075 6.22101 18.9975 6.35601 19.1115 6.47001C19.2315 6.58401 19.3695 6.67401 19.5255 6.74001C19.6875 6.80001 19.8645 6.83001 20.0565 6.83001C20.2425 6.83001 20.4165 6.80001 20.5785 6.74001C20.7405 6.67401 20.8785 6.58401 20.9925 6.47001C21.1125 6.35601 21.2055 6.22101 21.2715 6.06501C21.3375 5.90901 21.3705 5.74101 21.3705 5.56101C21.3705 5.38101 21.3375 5.21301 21.2715 5.05701C21.2055 4.90101 21.1125 4.76601 20.9925 4.65201C20.8785 4.53801 20.7405 4.45101 20.5785 4.39101C20.4165 4.32501 20.2425 4.29201 20.0565 4.29201C19.8645 4.29201 19.6875 4.32501 19.5255 4.39101C19.3695 4.45101 19.2315 4.53801 19.1115 4.65201C18.9975 4.76601 18.9075 4.90101 18.8415 5.05701C18.7755 5.21301 18.7425 5.38101 18.7425 5.56101ZM22.5315 3.14001H17.5365V2.57301H19.7415V1.27701H20.4435V2.57301H22.5315V3.14001Z" fill="#464646"/>
<path d="M26.1462 6.93801C26.6922 6.66801 27.1692 6.35901 27.5772 6.01101C27.9852 5.66301 28.3332 5.28801 28.6212 4.88601C28.9092 4.48401 29.1372 4.06401 29.3052 3.62601C29.4732 3.18201 29.5872 2.73201 29.6472 2.27601C28.9092 2.29401 28.1802 2.30301 27.4602 2.30301H26.4702V1.70001H29.1612C29.3652 1.70001 29.5722 1.70001 29.7822 1.70001C29.9922 1.69401 30.2052 1.68801 30.4212 1.68201C30.3312 2.93601 29.9802 4.04301 29.3682 5.00301C28.7562 5.96301 27.8382 6.77001 26.6142 7.42401L26.1462 6.93801ZM32.1042 9.18801V0.989014H32.8062V9.18801H32.1042Z" fill="#464646"/>
</g>
</svg>
